<svg width="24" height="24" viewBox="0 0 24 24" fill="none" xmlns="http://www.w3.org/2000/svg">
<path d="M19.7547 21.1553H17.3611M14.9674 21.1553H17.3611M17.3611 21.1553L17.361 18.551M17.361 18.551H15.81M17.361 18.551L18.3561 18.5307C19.6104 18.5419 20.6332 17.5282 20.6332 16.2738V15.3591C20.6332 14.0982 19.617 13.0728 18.3561 13.0616L15.81 13.0819H14.7072H11.9731M6.55822 18.551L6.5583 21.1553M6.55822 18.551H5.57208C4.35408 18.551 3.3667 17.5636 3.3667 16.3456V15.2873C3.3667 14.0693 4.35408 13.0819 5.57208 13.0819H8.11812M6.55822 18.551H8.11812M6.5583 21.1553C6.5583 21.1553 8.15406 21.1553 8.97883 21.1553M6.5583 21.1553H4.19155M8.11812 18.551H10.7H11.9775M8.11812 18.551V13.0819M8.11812 13.0819H10.7H11.9731M15.81 18.551H13.255H11.9775M15.81 18.551V16.1476L15.8369 13.0704M11.9731 6.33983V8.06826M11.9731 13.0819L11.9775 18.551M15.965 8.87599L12.851 3.30188C12.4683 2.61698 11.482 2.61933 11.1026 3.30604L8.02327 8.88016C7.65508 9.54665 8.13716 10.3637 8.89859 10.3637H15.092C15.8556 10.3637 16.3374 9.54256 15.965 8.87599Z" stroke="#2B2A31" stroke-width="1.6" stroke-linecap="round"/>
</svg>
