<svg width="12" height="12" viewBox="0 0 12 12" fill="none" xmlns="http://www.w3.org/2000/svg">
<path d="M5.5249 10.4004C2.83251 10.4004 0.649902 8.21778 0.649902 5.52539C0.649902 2.833 2.83251 0.650391 5.5249 0.650391C8.21729 0.650391 10.3999 2.833 10.3999 5.52539C10.3999 8.21778 8.21729 10.4004 5.5249 10.4004Z" fill="#346AFF"/>
<path d="M7.1499 4.44206L4.98324 6.60872L3.8999 5.52539M5.5249 10.4004C2.83251 10.4004 0.649902 8.21778 0.649902 5.52539C0.649902 2.833 2.83251 0.650391 5.5249 0.650391C8.21729 0.650391 10.3999 2.833 10.3999 5.52539C10.3999 8.21778 8.21729 10.4004 5.5249 10.4004Z" stroke="#FCFBFC" stroke-width="1.3" stroke-linecap="round" stroke-linejoin="round"/>
</svg>
