<svg width="24" height="24" viewBox="0 0 24 24" fill="none" xmlns="http://www.w3.org/2000/svg">
<path d="M12.0088 19.1111C12.5109 19.1111 12.918 19.534 12.918 20.0556C12.9178 20.5771 12.5108 21 12.0088 21H11.9999C11.4979 21 11.0909 20.5771 11.0908 20.0556C11.0908 19.534 11.4978 19.1111 11.9999 19.1111H12.0088ZM20.1824 13.9167C20.1824 13.0401 19.8469 12.1986 19.2502 11.5787C18.6534 10.959 17.8441 10.6112 17.0003 10.6112H15.3729C14.9709 10.6112 14.6168 10.3363 14.5019 9.93608C14.232 8.99587 13.7311 8.14431 13.0494 7.46524C12.3677 6.78632 11.5277 6.30309 10.6122 6.06242C9.69665 5.82178 8.73662 5.83153 7.8261 6.09194C6.91545 6.35244 6.08532 6.85452 5.41735 7.54825C4.74947 8.24187 4.26643 9.10377 4.01542 10.0495C3.76444 10.9954 3.75373 11.9934 3.98524 12.9446C4.21671 13.8957 4.68225 14.768 5.33567 15.4763C5.98925 16.1847 6.80914 16.7046 7.71423 16.9852C8.19528 17.1344 8.46846 17.6605 8.32508 18.1602C8.18148 18.66 7.6751 18.9449 7.19395 18.7957C5.9872 18.4215 4.89483 17.7277 4.02341 16.7832C3.15208 15.8388 2.53151 14.6758 2.22284 13.4076C1.91416 12.1393 1.92727 10.809 2.26191 9.5478C2.59654 8.28668 3.2412 7.13767 4.13173 6.21276C5.02235 5.28781 6.12894 4.61865 7.34311 4.27132C8.55731 3.92398 9.83788 3.90979 11.0588 4.23073C12.2796 4.5517 13.3994 5.19666 14.3083 6.10208C15.0513 6.84213 15.6316 7.73612 16.0157 8.72234H17.0003C18.3264 8.72234 19.598 9.26927 20.5358 10.2432C21.4735 11.2173 22.0007 12.5391 22.0007 13.9167C22.0006 15.2942 21.4734 16.6153 20.5358 17.5893C19.598 18.5633 18.3264 19.1111 17.0003 19.1111H16.5457C16.0438 19.1111 15.6368 18.6881 15.6366 18.1667C15.6366 17.6451 16.0436 17.2223 16.5457 17.2223H17.0003C17.8442 17.2223 18.6534 16.8736 19.2502 16.2538C19.8468 15.634 20.1823 14.7933 20.1824 13.9167ZM11.0908 16.2778V12.5001C11.0908 11.9785 11.4978 11.5556 11.9999 11.5556C12.502 11.5556 12.9091 11.9785 12.9091 12.5001V16.2778C12.909 16.7993 12.502 17.2223 11.9999 17.2223C11.4979 17.2223 11.0909 16.7993 11.0908 16.2778Z" fill="#2B2A31"/>
</svg>
