<svg width="20" height="19" viewBox="0 0 20 19" fill="none" xmlns="http://www.w3.org/2000/svg">
<path d="M0.649902 17.6504H7.59318M7.59318 17.6504H7.70663M7.59318 17.6504C7.61207 17.6505 7.63098 17.6506 7.6499 17.6506C7.66883 17.6506 7.68774 17.6505 7.70663 17.6504M7.59318 17.6504C3.7533 17.6199 0.649902 14.4972 0.649902 10.6502V6.57324C0.649902 6.06344 1.06295 5.65039 1.57275 5.65039H13.7266C14.2364 5.65039 14.6499 6.06344 14.6499 6.57324V6.65039M7.70663 17.6504H14.6499M7.70663 17.6504C11.5465 17.6199 14.6499 14.4972 14.6499 10.6502M14.6499 6.65039H16.1499C17.5306 6.65039 18.6499 7.76968 18.6499 9.15039C18.6499 10.5311 17.5306 11.6504 16.1499 11.6504H14.6499V10.6502M14.6499 6.65039V10.6502M11.6499 0.650391L10.6499 2.65039M8.6499 0.650391L7.6499 2.65039M5.6499 0.650391L4.6499 2.65039" stroke="white" stroke-width="1.3" stroke-linecap="round" stroke-linejoin="round"/>
</svg>
