<svg width="20" height="20" viewBox="0 0 20 20" fill="none" xmlns="http://www.w3.org/2000/svg">
<path d="M10.0001 10V15M10.0001 15L12.5001 13.3333M10.0001 15L7.50008 13.3333M10.8334 2.50072C10.7538 2.5 10.6645 2.5 10.5623 2.5H6.83358C5.90016 2.5 5.4331 2.5 5.07658 2.68166C4.76298 2.84144 4.50819 3.09623 4.3484 3.40983C4.16675 3.76635 4.16675 4.23341 4.16675 5.16683V14.8335C4.16675 15.7669 4.16675 16.2334 4.3484 16.5899C4.50819 16.9035 4.76298 17.1587 5.07658 17.3185C5.43275 17.5 5.89924 17.5 6.83084 17.5H13.1693C14.1009 17.5 14.5667 17.5 14.9229 17.3185C15.2365 17.1587 15.4921 16.9035 15.6519 16.5899C15.8334 16.2337 15.8334 15.7679 15.8334 14.8363V7.7714C15.8334 7.66913 15.8334 7.57967 15.8326 7.5M10.8334 2.50072C11.0714 2.50289 11.222 2.51154 11.3658 2.54605C11.5358 2.58688 11.6983 2.65439 11.8474 2.74577C12.0156 2.8488 12.1599 2.99318 12.448 3.28125L15.0526 5.88582C15.3408 6.17407 15.4841 6.3178 15.5872 6.48599C15.6786 6.63511 15.7462 6.79771 15.787 6.96777C15.8215 7.11147 15.8304 7.26209 15.8326 7.5M10.8334 2.50072V4.83333C10.8334 5.76675 10.8334 6.23314 11.0151 6.58966C11.1749 6.90326 11.4296 7.15873 11.7432 7.31852C12.0994 7.5 12.5659 7.5 13.4975 7.5H15.8326M15.8326 7.5H15.8336" stroke="#2B2A31" stroke-width="1.4" stroke-linecap="round" stroke-linejoin="round"/>
</svg>
