<svg width="22" height="11" viewBox="0 0 22 11" fill="none" xmlns="http://www.w3.org/2000/svg">
<path d="M11.1152 0C11.6183 0 12.0262 0.408119 12.0264 0.911133V9.625C12.0262 10.1637 11.5895 10.6005 11.0508 10.6006C10.7529 10.6005 10.4712 10.4639 10.2861 10.2305L4.87207 3.40137V9.68262C4.87195 10.1895 4.46102 10.6006 3.9541 10.6006C3.44742 10.6003 3.03625 10.1893 3.03613 9.68262V0.976562C3.03613 0.437634 3.4738 0.0001321 4.0127 0C4.3101 0.000103451 4.59129 0.136344 4.77637 0.369141L10.2041 7.20117V0.911133C10.2042 0.408254 10.6124 0.000216455 11.1152 0Z" fill="white"/>
<path d="M21.1025 0C21.5708 7.93266e-05 21.9502 0.380344 21.9502 0.848633C21.9501 1.31681 21.5707 1.69621 21.1025 1.69629H18.5068V9.68262C18.5067 10.1894 18.0956 10.6003 17.5889 10.6006C17.0821 10.6005 16.67 10.1894 16.6699 9.68262V1.69629H14.0742C13.6062 1.69606 13.2267 1.31672 13.2266 0.848633C13.2266 0.380434 13.6061 0.00022533 14.0742 0H21.1025Z" fill="white"/>
<path d="M0.917969 0C1.42483 0 1.83571 0.411165 1.83594 0.917969V9.68262C1.83582 10.1895 1.42489 10.6006 0.917969 10.6006C0.411353 10.6002 0.00012151 10.1893 0 9.68262V0.917969C0.00022786 0.411388 0.411418 0.000359688 0.917969 0Z" fill="white"/>
</svg>
