<svg width="28" height="18" viewBox="0 0 28 18" fill="none" xmlns="http://www.w3.org/2000/svg">
<rect width="4.14138" height="4.58855" rx="2.07069" transform="matrix(0.999848 -0.0174524 0 1 7.43457 13.3584)" fill="#16181D"/>
<rect width="4.14138" height="4.58855" rx="2.07069" transform="matrix(0.999848 -0.0174524 0 1 21.7913 13.2852)" fill="#16181D"/>
<path d="M25.9147 15.4337L1.49543 15.6696C0.621813 15.6809 -0.0521513 14.9721 0.00317774 14.1003L0.791878 1.67232C0.845443 0.828277 1.56418 0.146376 2.40987 0.137261L19.8053 0.000120126C20.8771 -0.00972345 21.8305 0.586072 22.2678 1.53881L25.7117 9.04303L26.9793 9.70927C27.4572 9.9664 27.7674 10.4785 27.7418 11.0707L27.5305 13.8784C27.4876 14.7291 27.0506 15.4337 25.9147 15.4337Z" fill="#55555A"/>
<path fill-rule="evenodd" clip-rule="evenodd" d="M19.0337 0.760532L14.9534 0.814935L18.761 9.42692L23.2837 9.37488C23.9864 9.3668 24.4722 8.62188 24.1806 7.99979L21.4988 2.27951C21.0554 1.33388 20.1019 0.74629 19.0337 0.760532Z" fill="#F2F0F3"/>
<path d="M18.761 9.42692L14.9534 0.814935L14.8186 0.816732C13.9783 0.827936 13.2639 1.5032 13.2053 2.34174L12.8167 7.89885C12.7556 8.77366 13.4294 9.48826 14.3061 9.47817L18.761 9.42692Z" fill="#16181D"/>
<rect width="7.87583" height="2.36274" rx="1.18137" transform="matrix(0.999848 -0.0174524 0 1 19.2656 10.5635)" fill="#16181D"/>
<rect width="1.41949" height="1.43505" rx="0.709744" transform="matrix(0.999848 -0.0174524 0 1 20.125 10.9785)" fill="#F2F0F3"/>
<rect width="4.14138" height="4.58855" rx="2.07069" transform="matrix(0.999848 -0.0174524 0 1 15.7393 13.3584)" fill="#16181D"/>
<rect width="4.14138" height="4.58855" rx="2.07069" transform="matrix(0.999848 -0.0174524 0 1 1.36304 13.4111)" fill="#16181D"/>
<rect width="1.62647" height="1.80209" rx="0.813236" transform="matrix(0.999848 -0.0174524 0 1 2.66797 14.8008)" fill="white"/>
<rect width="1.62647" height="1.80209" rx="0.813236" transform="matrix(0.999848 -0.0174524 0 1 16.9963 14.6562)" fill="white"/>
<rect width="1.41949" height="1.43505" rx="0.709744" transform="matrix(0.999848 -0.0174524 0 1 24.9563 10.9531)" fill="#F2F0F3"/>
</svg>
