<svg width="16" height="16" viewBox="0 0 16 16" fill="none" xmlns="http://www.w3.org/2000/svg">
<path d="M5.33341 2.66699H4.80021C4.05347 2.66699 3.67983 2.66699 3.39461 2.81232C3.14373 2.94015 2.9399 3.14397 2.81207 3.39486C2.66675 3.68007 2.66675 4.05372 2.66675 4.80046V11.2005C2.66675 11.9472 2.66675 12.3204 2.81207 12.6056C2.9399 12.8565 3.14373 13.0606 3.39461 13.1885C3.67955 13.3337 4.05274 13.3337 4.79802 13.3337H5.33341M5.33341 2.66699H11.2002C11.9469 2.66699 12.3198 2.66699 12.605 2.81232C12.8559 2.94015 13.0604 3.14397 13.1882 3.39486C13.3334 3.67979 13.3334 4.05299 13.3334 4.79827V11.2027C13.3334 11.948 13.3334 12.3206 13.1882 12.6056C13.0604 12.8565 12.8559 13.0606 12.605 13.1885C12.3201 13.3337 11.9474 13.3337 11.2021 13.3337H5.33341M5.33341 2.66699V13.3337M8.00008 7.33366H10.6667M8.00008 5.33366H10.6667" stroke="#2B2A31" stroke-width="1.3" stroke-linecap="round" stroke-linejoin="round"/>
</svg>
