<svg width="24" height="24" viewBox="0 0 24 24" fill="none" xmlns="http://www.w3.org/2000/svg">
<path d="M18.5593 17.4747H19.8559C20.4878 17.4747 21 16.9625 21 16.3307V14.0807C21 12.8591 20.0097 11.8688 18.7881 11.8688L17.481 7.84078C17.1864 6.72051 16.1894 6.30102 15.2797 6.30102L5.28882 6.29785C4.02486 6.29747 3 7.32202 3 8.58599V15.1866C3 16.4503 4.02444 17.4747 5.28814 17.4747H5.63136M18.7502 11.907H14.1358C13.5039 11.907 12.9917 11.3947 12.9917 10.7629V6.64425M14.441 17.513H9.55963M8.91122 17.4747C8.91122 18.3172 8.22825 19.0002 7.3858 19.0002C6.54334 19.0002 5.86037 18.3172 5.86037 17.4747C5.86037 16.6323 6.54334 15.9493 7.3858 15.9493C8.22825 15.9493 8.91122 16.6323 8.91122 17.4747ZM18.3307 17.4747C18.3307 18.3172 17.6478 19.0002 16.8053 19.0002C15.9629 19.0002 15.2799 18.3172 15.2799 17.4747C15.2799 16.6323 15.9629 15.9493 16.8053 15.9493C17.6478 15.9493 18.3307 16.6323 18.3307 17.4747Z" stroke="#2B2A31" stroke-width="2" stroke-miterlimit="10" stroke-linecap="round" stroke-linejoin="round"/>
</svg>
