<svg width="20" height="20" viewBox="0 0 20 20" fill="none" xmlns="http://www.w3.org/2000/svg">
<path d="M7.22908 9.03775C7.22908 7.80386 4.88667 7.64851 4.87421 9.04209C4.8687 9.65882 5.33766 9.89959 5.86117 10.0898C5.88437 10.0982 5.90768 10.106 5.93106 10.1143C6.57482 10.3378 7.2735 10.5332 7.26678 11.2857C7.25429 12.6793 4.91192 12.5239 4.91192 11.29M15.06 9.03771C15.06 7.80382 12.7176 7.64848 12.7051 9.04205C12.6996 9.65879 13.1686 9.89955 13.6921 10.0898C13.7153 10.0982 13.7386 10.106 13.762 10.1142C14.4057 10.3378 15.1044 10.5332 15.0977 11.2857C15.0852 12.6792 12.7428 12.5239 12.7428 11.29M9.98589 17.2814C13.9054 17.2814 17.1022 14.0846 17.1022 10.1651C17.1022 6.2456 13.9054 3.04883 9.98589 3.04883C6.0664 3.04883 2.86963 6.2456 2.86963 10.1651C2.86963 14.0846 6.0664 17.2814 9.98589 17.2814ZM9.5907 8.05379H10.2698C10.7571 8.05379 11.1557 8.45242 11.1557 8.93963V11.3905C11.1557 11.8777 10.7571 12.2763 10.2698 12.2763H9.5907C9.10349 12.2763 8.70486 11.8777 8.70486 11.3905V8.93963C8.70486 8.45242 9.10349 8.05379 9.5907 8.05379Z" stroke="white" stroke-width="1.4" stroke-miterlimit="22.926" stroke-linecap="round" stroke-linejoin="round"/>
</svg>
