<svg width="24" height="24" viewBox="0 0 24 24" fill="none" xmlns="http://www.w3.org/2000/svg">
<path d="M7.44418 10.5147C7.44418 10.5147 6.77324 9.95075 5.98197 10.1891C5.31858 10.3889 5.1762 11.1048 5.55665 11.4885C5.63089 11.5634 5.72758 11.6099 5.82445 11.6516C6.01733 11.7345 6.37937 11.8864 6.76726 12.0295C8.14437 12.5374 7.55117 13.8696 6.44261 13.8696C5.88744 13.8696 5.42152 13.6265 5.13954 13.3153M8.68649 10.1303H10.7516M9.71488 10.2497V13.8696M16.7 10.1303V13.8696M16.7 10.1303C16.7 10.1303 16.7026 10.9443 16.7026 11.1856C16.7026 11.1938 16.7026 11.2024 16.7026 11.2114C16.7031 11.7824 17.1702 12.2408 17.7412 12.2408C18.3239 12.2408 18.8171 11.7683 18.8171 11.1856C18.8171 10.6028 18.3239 10.1303 17.7412 10.1303H16.7ZM15.328 12C15.328 13.0326 14.4909 13.8696 13.4583 13.8696C12.4258 13.8696 11.5887 13.0326 11.5887 12C11.5887 10.9674 12.4258 10.1303 13.4583 10.1303C14.4909 10.1303 15.328 10.9674 15.328 12ZM21.0117 9.09564V14.9044C21.0117 15.4348 20.801 15.9435 20.4259 16.3186L16.3185 20.4259C15.9435 20.801 15.4348 21.0117 14.9043 21.0117H9.09566C8.56523 21.0117 8.05653 20.801 7.68146 20.4259L3.57407 16.3186C3.199 15.9435 2.98828 15.4348 2.98828 14.9044V9.09564C2.98828 8.5652 3.199 8.05649 3.57407 7.68142L7.68146 3.57406C8.05653 3.19899 8.56523 2.98828 9.09567 2.98828H14.9043C15.4348 2.98828 15.9435 3.19899 16.3185 3.57406L20.4259 7.68142C20.801 8.05649 21.0117 8.5652 21.0117 9.09564Z" stroke="#2B2A31" stroke-width="1.5" stroke-miterlimit="10" stroke-linecap="round" stroke-linejoin="round"/>
</svg>
