<svg width="24" height="24" viewBox="0 0 24 24" fill="none" xmlns="http://www.w3.org/2000/svg">
<path d="M11.9951 2C12.2593 2.00022 12.5124 2.11031 12.6923 2.30371L16.4814 6.37695L16.58 6.48438C16.8001 6.74339 16.9477 7.05783 17.0058 7.39453C17.0721 7.7794 17.0178 8.17594 16.8515 8.5293C16.7602 8.72337 16.6357 8.89832 16.4873 9.0498L18.414 11.168C18.6617 11.43 18.8302 11.7569 18.8994 12.1113C18.9707 12.4773 18.9319 12.8564 18.79 13.2012C18.6963 13.4286 18.5591 13.6336 18.3886 13.8076L20.3183 15.9307C20.5659 16.1927 20.7345 16.5188 20.8037 16.873C20.875 17.2389 20.8371 17.6182 20.6953 17.9629C20.5533 18.3076 20.3131 18.6039 20.0048 18.8135C19.6966 19.0229 19.3335 19.1373 18.9609 19.1426H12.9765C12.97 19.1427 12.9635 19.1436 12.957 19.1436V21.0479C12.957 21.5738 12.5307 21.9999 12.0048 22L12 21.999L11.9951 22C11.4693 21.9997 11.0429 21.5727 11.0429 21.0469V19.1436H5.04C4.66729 19.1383 4.30335 19.024 3.99507 18.8145C3.68679 18.6048 3.44661 18.3086 3.30465 17.9639C3.16277 17.6192 3.12496 17.2399 3.19625 16.874C3.26537 16.5196 3.43385 16.1928 3.6816 15.9307C4.11877 15.4929 4.65549 15.5014 5.01851 15.8643C5.40518 16.2508 5.49224 16.7732 5.06636 17.2129H5.09078L5.08785 17.2158C5.08088 17.2235 5.07361 17.2309 5.06636 17.2383H18.9336C18.9263 17.2308 18.9191 17.2226 18.9121 17.2148L18.9091 17.2119L16.0527 14.0693L15.9658 13.959C15.7857 13.6905 15.7524 13.3445 15.8857 13.043C16.0383 12.6984 16.3809 12.4756 16.7578 12.4756H17.0293C17.022 12.4682 17.0147 12.4608 17.0078 12.4531L17.0048 12.4502L14.1474 9.30762L14.0615 9.19727C13.8812 8.92876 13.8481 8.58288 13.9814 8.28125C14.134 7.93673 14.4757 7.71393 14.8525 7.71387H15.042C15.0704 7.71387 15.0996 7.71523 15.1279 7.71777L15.1074 7.69629L11.9941 4.34961L11.3584 5.03125C10.9995 5.41558 10.3961 5.43594 10.0117 5.07715C9.62741 4.71826 9.60607 4.11491 9.9648 3.73047L11.2988 2.30273L11.3701 2.23438C11.5426 2.08417 11.7642 2.00003 11.9951 2Z" fill="#2B2A31"/>
<path d="M8.46509 6.20801C8.77646 6.26121 9.03778 6.47329 9.15259 6.76758C9.44401 7.51459 9.96586 8.20596 10.6145 8.7002C11.6021 9.45267 12.1622 10.4015 12.1624 11.458C12.1624 11.9237 12.0649 12.3844 11.8792 12.8115C11.6933 13.2387 11.4226 13.624 11.0842 13.9463C10.7459 14.2685 10.3462 14.522 9.90942 14.6943C9.47297 14.8665 9.00596 14.9551 8.5354 14.9551C8.06484 14.9551 7.59783 14.8665 7.16138 14.6943C6.72461 14.522 6.32491 14.2685 5.98657 13.9463C5.64824 13.624 5.37755 13.2387 5.19165 12.8115C5.00588 12.3844 4.90845 11.9237 4.90845 11.458C4.90848 11.3287 4.9207 11.2103 4.93481 11.1104L4.96118 10.9883C5.04083 10.7102 5.25077 10.4841 5.52856 10.3867C5.84589 10.2756 6.19892 10.3504 6.4436 10.5811C6.57039 10.7006 6.7497 10.7743 6.94458 10.7744C7.14125 10.7744 7.32182 10.6997 7.44849 10.5791C7.57367 10.4599 7.635 10.3084 7.63501 10.1602C7.63501 9.98623 7.60858 9.85587 7.57349 9.74902C7.53671 9.6372 7.48539 9.53245 7.4104 9.39844L7.40942 9.39746L7.24731 9.10742C7.2436 9.10077 7.24012 9.09366 7.23657 9.08691C6.93364 8.51018 6.89059 7.92589 7.10474 7.35938C7.22164 7.05026 7.40841 6.76781 7.63208 6.50781L7.71411 6.42383C7.91685 6.24252 8.19284 6.1616 8.46509 6.20801Z" stroke="#2B2A31" stroke-width="1.8" stroke-linecap="round" stroke-linejoin="round"/>
</svg>
