<svg width="24" height="24" viewBox="0 0 24 24" fill="none" xmlns="http://www.w3.org/2000/svg">
<path d="M12.6176 2H13.0233C13.0741 2.02592 13.2168 2.04997 13.2804 2.06555C14.0691 2.25886 14.356 2.85229 14.7295 3.48807L15.4699 4.74642C15.5644 4.90703 15.6874 5.12044 15.7869 5.27828C15.8047 5.30659 16.0742 5.37462 16.141 5.39905C16.273 5.44776 16.4004 5.50776 16.5219 5.57838C17.0614 5.89175 17.462 6.41842 17.6099 7.02158C17.6852 7.3289 17.7525 7.64544 17.8215 7.95495L18.1934 9.62333L18.4237 10.6564C18.4919 10.9611 18.5906 11.355 18.5955 11.6662C18.5996 11.9545 18.5233 12.2383 18.3749 12.4855C18.1672 12.8394 17.8102 13.0982 17.4143 13.201C17.0207 13.3031 16.6025 13.2434 16.2532 13.0351C15.8271 12.7792 15.6225 12.4462 15.5032 11.9766C15.298 12.0023 14.9185 12.1013 14.6993 12.1502L13.0983 12.5071L8.20158 13.6002C8.21122 13.7036 8.22435 13.8253 8.22343 13.9272C8.22134 14.3413 8.05334 14.7372 7.75703 15.0265C7.45685 15.3214 7.05025 15.4826 6.62949 15.4735C6.21787 15.4635 5.82697 15.2909 5.54214 14.9936C5.39531 14.8403 5.2815 14.6586 5.20775 14.4596C5.1139 14.2016 5.06532 13.9349 5.00562 13.6668L4.75647 12.548L4.40061 10.9538C4.30428 10.5221 4.1408 9.92481 4.15491 9.50001C4.17439 8.91427 4.40945 8.35634 4.81499 7.93324C4.90081 7.8424 5.00271 7.76921 5.09457 7.68307C5.12893 7.45975 5.1486 7.17649 5.16983 6.94768L5.28128 5.75482C5.32519 5.28258 5.33185 4.7246 5.53279 4.29223C5.69125 3.95127 5.97296 3.65542 6.30409 3.47817C6.56824 3.33678 6.87131 3.28004 7.16289 3.21504L7.80534 3.07209L11.2215 2.30998L12.1957 2.09265C12.3086 2.06789 12.5199 2.03735 12.6176 2ZM5.77542 9.92735C5.90613 9.90221 6.03604 9.87442 6.16572 9.84579C6.58501 9.75322 6.99365 10.0166 7.08722 10.4356C7.18247 10.8622 6.91514 11.2858 6.48834 11.38C6.3658 11.4071 6.24321 11.4339 6.12058 11.4605C6.19791 11.7698 6.25907 12.0922 6.33429 12.4041C6.56116 12.3621 6.7963 12.307 7.02194 12.2555L13.4574 10.8204L15.5837 10.3462C15.9412 10.2666 16.3267 10.1894 16.6797 10.1012C16.6188 9.80429 16.5382 9.48641 16.4849 9.19396L16.103 9.2757C15.6806 9.36615 15.2645 9.09778 15.1727 8.67559C15.0806 8.25201 15.3497 7.83406 15.7734 7.74256L16.1543 7.66031C16.1065 7.45164 16.0755 7.25784 15.9282 7.0918C15.7413 6.88106 15.531 6.82083 15.2575 6.83807C15.1364 6.8422 14.9443 6.89135 14.8219 6.91882L14.2104 7.05631L11.9827 7.55317L8.15094 8.40754L6.92383 8.68084C6.8102 8.70608 6.69549 8.73186 6.58187 8.75693C6.32189 8.81432 6.11193 8.84086 5.92151 9.04589C5.78292 9.19714 5.71018 9.39732 5.71932 9.60226C5.72356 9.7124 5.74845 9.8209 5.77542 9.92735ZM12.7783 3.57509C12.4769 3.62067 12.0371 3.73385 11.7252 3.80372L9.80616 4.23212L7.98392 4.63839L7.4102 4.76532C7.17646 4.8169 6.9419 4.80678 6.91412 5.08965C6.89128 5.32216 6.86847 5.55526 6.84686 5.788L6.72429 7.11795C7.0603 7.04507 7.48731 6.93586 7.81774 6.87659L14.0882 5.47761C13.9896 5.32684 13.8877 5.14421 13.7956 4.98715L13.3066 4.1537C13.2109 3.99073 13.1064 3.79919 12.9968 3.64641C12.9719 3.61169 12.9258 3.58881 12.8838 3.57975C12.8491 3.57245 12.8135 3.57088 12.7783 3.57509Z" fill="#2B2A31"/>
<path d="M13.7206 16.4802C13.7217 16.1671 13.9813 15.9062 14.2943 15.9062C14.5985 15.9062 14.9776 16.1213 15.2698 16.2059C15.9709 16.409 17.3279 16.4392 17.6783 16.4591L18.4698 16.5054C18.9661 16.533 19.4638 16.5527 19.9613 16.6171C20.7213 16.7175 21.6545 16.9401 21.926 17.7613C21.9605 17.8658 21.9685 17.9687 22.0001 18.0678V18.4021C21.9623 18.4942 21.9558 18.5996 21.9321 18.696C21.9063 18.8009 21.8703 18.903 21.828 19.0023C21.5092 19.7773 20.7124 20.3529 19.9705 20.6992C18.5568 21.359 16.9575 21.6551 15.4198 21.8602C15.0959 21.9034 14.7848 21.9283 14.4596 21.9552C14.0557 21.9885 13.7124 21.6652 13.7143 21.2599C13.7144 21.2444 13.7145 21.2288 13.7146 21.2132C13.717 20.7763 14.059 20.4165 14.4942 20.3781C16.0663 20.239 17.6805 19.9626 19.1267 19.3658C19.6176 19.1633 20.2164 18.8235 20.4165 18.3082C19.8577 18.1399 19.1453 18.1092 18.5593 18.0809L17.4361 18.0197C16.1355 17.9399 13.7206 17.3086 13.7206 16.5054C13.7206 16.5054 13.7206 16.4962 13.7206 16.4802Z" fill="#2B2A31"/>
<path d="M6.31776 17.46C6.17131 17.0318 6.55519 16.6449 7.00778 16.6429C7.06621 16.6427 7.12454 16.6425 7.1825 16.6426C7.4998 16.6429 7.70365 16.9488 7.94344 17.1566C8.17955 17.3611 8.49133 17.4319 8.78713 17.5082C9.89311 17.7936 11.7696 17.7334 11.8759 19.2757C11.9322 20.0931 11.2453 20.6833 10.5551 20.9832C9.03418 21.6148 7.31525 21.7486 5.68798 21.8818C5.22255 21.9197 4.76488 21.9279 4.29979 21.956C4.12333 21.9653 3.45644 21.9624 3.31577 22.0001H2.78501C2.35146 22.0001 2 21.6486 2 21.2151C2 20.7839 2.34661 20.4341 2.77769 20.427C4.96538 20.3905 8.87101 20.23 10.2121 19.3951C10.0306 19.3516 9.82075 19.2937 9.63743 19.2642C8.26867 19.0439 6.76978 18.7818 6.31776 17.46Z" fill="#2B2A31"/>
</svg>
