<svg width="24" height="19" viewBox="0 0 24 19" fill="none" xmlns="http://www.w3.org/2000/svg">
<path d="M18.2315 0.000798351C20.0322 -0.0363121 21.6114 1.22575 22.6786 2.66069C23.7457 4.09562 24.1938 5.89105 23.9227 7.65214C23.6515 9.41307 22.6842 10.9956 21.2338 12.0512C20.3941 12.6623 19.4318 13.0674 18.4253 13.2486L23.3343 19H17.107C15.4439 17.2314 11.3446 13.3272 8.25351 11.8572L6.15184 17.7762L0 17.8015L4.07569 7.9311L4.76504 6.11498L13.8239 7.78301C13.3163 8.3213 12.8946 8.93936 12.5799 9.61749L15.545 10.9641C15.8912 10.218 16.4791 9.60677 17.2149 9.22718C17.9508 8.84766 18.7936 8.72167 19.6102 8.86786L20.1916 5.69138L20.187 5.69023C19.3864 5.5091 18.668 5.07204 18.1433 4.44696C17.6186 3.82164 17.3171 3.04227 17.2846 2.23019L14.0235 2.35877C14.0577 3.20998 14.2502 4.0416 14.5852 4.81431L5.84663 3.49068L7.27753 0.0260541C7.27753 0.0260541 16.1676 0.000802009 18.2315 0.000798351Z" fill="#9BB5FF"/>
</svg>
