<svg width="1862" height="298" viewBox="0 0 1862 298" fill="none" xmlns="http://www.w3.org/2000/svg">
<path d="M87.7562 297.695C67.3605 297.695 50.0063 293.356 35.6936 284.676C21.4084 275.867 11.2412 263.884 5.19214 248.727C-0.696975 233.441 -1.57635 216.082 2.55401 196.65C6.65683 177.348 14.8882 160.118 27.2482 144.961C39.7682 129.675 55.0432 117.627 73.0733 108.818C91.1033 100.009 110.316 95.6045 130.712 95.6045C151.108 95.6045 168.316 100.009 182.336 108.818C196.489 117.627 206.51 129.675 212.399 144.961C218.448 160.118 219.421 177.348 215.318 196.65C211.188 216.082 202.863 233.441 190.343 248.727C177.983 263.884 162.854 275.867 144.956 284.676C127.219 293.356 108.152 297.695 87.7562 297.695ZM98.1725 247.756C107.311 247.756 115.924 245.553 124.012 241.149C132.26 236.615 139.249 230.526 144.979 222.883C150.869 215.11 154.861 206.301 156.954 196.456C159.019 186.74 158.745 178.06 156.131 170.417C153.65 162.774 149.236 156.75 142.888 152.345C136.7 147.811 129.037 145.544 119.898 145.544C110.627 145.544 101.868 147.811 93.6202 152.345C85.5322 156.75 78.5569 162.774 72.6943 170.417C66.964 178.06 63.0663 186.74 61.0011 196.456C58.9084 206.301 59.0888 215.11 61.5423 222.883C64.1557 230.526 68.5565 236.615 74.7444 241.149C81.0924 245.553 88.9018 247.756 98.1725 247.756Z" fill="white"/>
<path d="M425.31 293.809H379.022L383.644 262.718C374.202 274.118 363.02 282.798 350.098 288.757C337.31 294.716 323.167 297.695 307.672 297.695C282.244 297.695 263.936 290.052 252.749 274.766C241.563 259.479 238.806 238.493 244.478 211.807L268.351 99.4909H325.367L304.219 198.982C300.997 214.139 302.106 226.057 307.546 234.736C313.145 243.286 322.301 247.561 335.016 247.561C348.26 247.561 359.672 243.092 369.254 234.153C378.995 225.085 385.504 212.843 388.781 197.427L409.598 99.4909H466.613L425.31 293.809Z" fill="white"/>
<path d="M613.719 288.757C597.222 294.716 581.822 297.695 567.518 297.695C552.685 297.695 540.221 294.651 530.125 288.562C520.189 282.344 513.213 273.729 509.197 262.718C505.208 251.577 504.755 238.752 507.839 224.243L523.782 149.236H489.017L499.591 99.4909H537.336L547.662 50.9113H601.697L591.371 99.4909H646.4L635.826 149.236H580.798L567.002 214.139C564.744 224.761 565.962 233.052 570.655 239.011C575.376 244.841 582.173 247.756 591.046 247.756C599.125 247.756 607.528 245.294 616.256 240.371L613.719 288.757Z" fill="white"/>
<path d="M833.413 272.045C805.144 289.145 776.375 297.695 747.106 297.695C725.386 297.695 706.815 293.161 691.393 284.093C676.131 274.895 665.133 262.459 658.399 246.784C651.798 231.109 650.591 213.426 654.776 193.735C658.769 174.951 666.837 158.175 678.982 143.407C691.26 128.639 706.121 116.979 723.566 108.429C741.012 99.8795 759.667 95.6045 779.533 95.6045C800.061 95.6045 817.134 100.333 830.752 109.79C844.397 119.117 853.8 132.201 858.962 149.042C864.151 165.753 864.405 185.12 859.724 207.143L858.402 213.361H711.99C712.749 221.004 715.158 227.741 719.217 233.57C723.435 239.27 729.226 243.804 736.589 247.173C744.084 250.541 753.063 252.225 763.526 252.225C783.789 252.225 804.025 245.812 824.233 232.987L833.413 272.045ZM715.438 184.991H811.787C812.518 176.57 811.372 169.186 808.351 162.839C805.49 156.361 800.935 151.309 794.687 147.682C788.571 144.054 781.209 142.241 772.6 142.241C763.859 142.241 755.646 144.119 747.961 147.876C740.408 151.633 733.837 156.685 728.25 163.033C722.663 169.381 718.392 176.7 715.438 184.991Z" fill="white"/>
<path d="M1200.68 293.809H1143.66L1164.4 196.261C1167.84 180.068 1167.25 167.567 1162.63 158.758C1158.02 149.949 1149.75 145.544 1137.83 145.544C1125.64 145.544 1115.16 150.014 1106.37 158.952C1097.72 167.891 1091.7 180.327 1088.31 196.261L1067.58 293.809H1010.56L1031.29 196.261C1034.74 180.068 1034.15 167.567 1029.53 158.758C1024.91 149.949 1016.58 145.544 1004.53 145.544C992.476 145.544 982.056 150.014 973.27 158.952C964.615 167.891 958.595 180.327 955.208 196.261L934.473 293.809H877.458L918.762 99.4909H964.255L959.426 131.553C968.554 119.765 979.327 110.826 991.746 104.737C1004.3 98.6488 1017.99 95.6045 1032.82 95.6045C1048.32 95.6045 1061.02 98.7784 1070.93 105.126C1080.84 111.474 1087.57 120.607 1091.13 132.525C1100.44 120.477 1111.33 111.344 1123.77 105.126C1136.38 98.7784 1150.36 95.6045 1165.73 95.6045C1189.96 95.6045 1207.22 103.183 1217.51 118.34C1227.96 133.367 1230.31 154.418 1224.55 181.493L1200.68 293.809Z" fill="white"/>
<path d="M1325.36 53.0488C1317.81 53.0488 1312 50.4579 1307.94 45.2761C1303.87 40.0943 1302.63 33.8113 1304.2 26.4273C1305.77 19.0432 1309.67 12.825 1315.91 7.77272C1322.17 2.59091 1329.08 0 1336.63 0C1344.31 0 1350.19 2.59091 1354.25 7.77272C1358.47 12.825 1359.8 19.0432 1358.23 26.4273C1356.66 33.8113 1352.68 40.0943 1346.28 45.2761C1340.01 50.4579 1333.04 53.0488 1325.36 53.0488ZM1302.79 293.809H1245.77L1287.08 99.4909H1344.09L1302.79 293.809Z" fill="white"/>
<path d="M1550.12 293.809H1493.1L1514.58 192.764C1517.72 177.995 1516.59 166.466 1511.21 158.175C1505.95 149.884 1497.1 145.739 1484.65 145.739C1475.91 145.739 1467.72 147.811 1460.08 151.957C1452.61 155.973 1446.22 161.737 1440.91 169.251C1435.63 176.635 1431.89 185.509 1429.69 195.873L1408.87 293.809H1351.86L1393.16 99.4909H1439.25L1434.63 130.582C1444.2 119.182 1455.58 110.502 1468.77 104.543C1481.95 98.584 1496.36 95.6045 1511.99 95.6045C1536.89 95.6045 1554.89 103.118 1566 118.145C1577.14 133.043 1579.94 153.511 1574.4 179.55L1550.12 293.809Z" fill="white"/>
<path d="M1799.24 293.809H1749.18L1751.81 267.382C1741.35 276.709 1729.59 284.093 1716.51 289.534C1703.57 294.975 1690.08 297.695 1676.04 297.695C1657.89 297.695 1642.59 293.356 1630.13 284.676C1617.83 275.867 1609.2 263.819 1604.24 248.533C1599.28 233.246 1598.85 215.952 1602.95 196.65C1607.08 177.218 1614.87 159.924 1626.3 144.767C1637.76 129.481 1651.5 117.498 1667.51 108.818C1683.69 100.009 1700.85 95.6045 1718.99 95.6045C1731.97 95.6045 1743.53 97.9363 1753.66 102.6C1763.96 107.134 1772.34 113.482 1778.82 121.643L1804.18 2.33182H1861.19L1799.24 293.809ZM1701.35 247.756C1710.76 247.756 1719.67 245.683 1728.1 241.537C1736.67 237.392 1743.96 231.757 1749.97 224.632C1756.15 217.377 1760.22 209.151 1762.17 199.953L1763.66 192.958C1765.61 183.76 1765.03 175.599 1761.91 168.474C1758.92 161.349 1754.01 155.778 1747.19 151.762C1740.52 147.617 1732.48 145.544 1723.08 145.544C1713.41 145.544 1704.27 147.747 1695.65 152.151C1687.03 156.556 1679.65 162.644 1673.49 170.417C1667.5 178.06 1663.45 186.804 1661.36 196.65C1659.29 206.366 1659.62 215.11 1662.34 222.883C1665.22 230.526 1670.01 236.615 1676.73 241.149C1683.48 245.553 1691.68 247.756 1701.35 247.756Z" fill="white"/>
</svg>
