<svg width="330" height="262" viewBox="0 0 330 262" fill="none" xmlns="http://www.w3.org/2000/svg">
<path d="M250.885 0C273.749 0 296.982 16.889 311.536 36.672C326.089 56.4551 332.188 81.2095 328.49 105.489C324.793 129.769 311.601 151.586 291.818 166.14C280.367 174.564 267.25 180.155 253.524 182.654L320.466 261.949H242.727C238.141 261.949 233.779 260.041 230.604 256.733C205.508 230.579 154.159 182.389 114.795 163.467L98.5385 155.29C56.5227 132.798 113.308 77.1916 179.718 115.533C249.562 155.858 275.533 112.518 274.615 90.5566C272.157 31.7457 201.901 40.5345 103.936 65.7965C90.6911 69.2118 79.0826 56.1126 84.246 43.4465L101.711 0.603218C101.63 0.555352 101.468 0.691847 101.245 0.96394L101.492 0.36005C101.492 0.36005 228.02 2.94911e-06 250.885 0Z" fill="white"/>
<path fill-rule="evenodd" clip-rule="evenodd" d="M104.779 188.893C107.451 181.703 102.133 174.053 94.463 174.053H37.4138C32.9886 174.053 28.9938 176.704 27.2737 180.781L0 245.425L76.2891 245.098C80.8714 245.078 84.962 242.221 86.5582 237.926L104.779 188.893Z" fill="white"/>
</svg>
