<svg width="160" height="160" viewBox="0 0 160 160" fill="none" xmlns="http://www.w3.org/2000/svg">
<rect width="160" height="160" rx="80" fill="#E7EDFF"/>
<path fill-rule="evenodd" clip-rule="evenodd" d="M104.001 64C104.001 77.2548 93.2558 88 80.001 88C66.7461 88 56.001 77.2548 56.001 64C56.001 50.7452 66.7461 40 80.001 40C93.2558 40 104.001 50.7452 104.001 64ZM96.001 64C96.001 72.8366 88.8375 80 80.001 80C71.1644 80 64.001 72.8366 64.001 64C64.001 55.1634 71.1644 48 80.001 48C88.8375 48 96.001 55.1634 96.001 64Z" fill="#346AFF"/>
<path d="M80.001 100C54.1034 100 32.0381 115.314 23.6328 136.768C25.6804 138.801 27.8374 140.725 30.0941 142.528C36.3531 122.831 55.9878 108 80.001 108C104.014 108 123.649 122.831 129.908 142.528C132.165 140.725 134.322 138.801 136.369 136.768C127.964 115.314 105.899 100 80.001 100Z" fill="#346AFF"/>
</svg>
