<svg width="328" height="328" viewBox="0 0 328 328" fill="none" xmlns="http://www.w3.org/2000/svg">
<path d="M234 0V1H304C316.703 1 327 11.2975 327 24V94H328V234H327V304C327 316.703 316.703 327 304 327H234V328H94V327H24C11.2975 327 1 316.703 1 304V234H0V94H1V24C1 11.2975 11.2975 1 24 1H94V0H234Z" stroke="#BFBFC1" stroke-width="2" stroke-dasharray="96 96"/>
<path d="M237.333 246.5C237.333 221.187 204.501 200.667 164 200.667C123.499 200.667 90.6665 221.187 90.6665 246.5M164 173.167C138.687 173.167 118.167 152.646 118.167 127.333C118.167 102.02 138.687 81.5 164 81.5C189.313 81.5 209.833 102.02 209.833 127.333C209.833 152.646 189.313 173.167 164 173.167Z" stroke="#BFBFC1" stroke-width="2" stroke-linecap="round" stroke-linejoin="round"/>
<path opacity="0.2" d="M298.647 169.521C199.66 123.449 141.381 123.742 29.3535 169.521H298.647Z" fill="#9BB5FF"/>
<path d="M298.647 169.521C199.66 123.449 141.381 123.742 29.3535 169.521" stroke="#0A4BFF"/>
</svg>
