<svg width="137" height="20" viewBox="0 0 137 20" fill="none" xmlns="http://www.w3.org/2000/svg">
<path d="M15.3418 3.70615C16.8571 3.67458 18.186 4.74818 19.084 5.96884C19.982 7.1895 20.359 8.71683 20.1309 10.2149C19.9027 11.7129 19.0887 13.0592 17.8682 13.9571C17.1616 14.4769 16.3518 14.8215 15.5049 14.9757L19.6357 19.8683H14.3955C12.996 18.3638 9.54648 15.0426 6.94531 13.7921L5.17676 18.8272L0 18.8487L3.42969 10.4522L4.00977 8.90732L11.6328 10.3263C11.2057 10.7842 10.8508 11.3099 10.5859 11.8868L13.0811 13.0323C13.3724 12.3976 13.8671 11.8777 14.4863 11.5548C15.1055 11.2319 15.8148 11.1248 16.502 11.2491L16.9912 8.54697L16.9873 8.54599C16.3136 8.39191 15.7091 8.02012 15.2676 7.48837C14.826 6.95643 14.5723 6.29344 14.5449 5.60263L11.8008 5.71201C11.8295 6.43611 11.9915 7.14355 12.2734 7.80087L4.91992 6.6749L6.12402 3.72763C6.12402 3.72763 13.605 3.70615 15.3418 3.70615Z" fill="#0A4BFF"/>
<path d="M27.8728 19.1865C26.5432 19.1865 25.3566 18.9003 24.3132 18.3281C23.2697 17.7559 22.4618 16.9901 21.8896 16.0308C21.3174 15.0546 21.0313 13.9859 21.0313 12.8246C21.0313 11.4782 21.3847 10.2328 22.0916 9.08832C22.8153 7.92704 23.7746 7.00979 24.9695 6.33658C26.1813 5.64654 27.4857 5.30152 28.8826 5.30152C30.2122 5.30152 31.3987 5.58764 32.4422 6.15986C33.4856 6.73209 34.2935 7.50628 34.8657 8.48243C35.4379 9.44176 35.7241 10.5021 35.7241 11.6633C35.7241 13.0098 35.3622 14.2636 34.6385 15.4249C33.9316 16.5694 32.9723 17.4866 31.7605 18.1766C30.5656 18.8498 29.2697 19.1865 27.8728 19.1865ZM28.1 15.5259C28.6554 15.5259 29.1771 15.3744 29.6652 15.0715C30.1701 14.7517 30.574 14.3057 30.877 13.7335C31.1799 13.1444 31.3314 12.4712 31.3314 11.7138C31.3314 11.1753 31.2136 10.6956 30.9779 10.2749C30.7591 9.8541 30.4478 9.53432 30.0439 9.31553C29.6399 9.07991 29.1771 8.9621 28.6554 8.9621C28.1 8.9621 27.5698 9.12198 27.0649 9.44176C26.5768 9.7447 26.1813 10.1907 25.8784 10.7798C25.5754 11.352 25.424 12.0168 25.424 12.7741C25.424 13.3127 25.5334 13.7924 25.7522 14.2131C25.9878 14.6339 26.3075 14.9621 26.7115 15.1977C27.1154 15.4165 27.5782 15.5259 28.1 15.5259Z" fill="#0A4BFF"/>
<path d="M40.9906 19.1865C39.863 19.1865 38.9373 18.934 38.2136 18.4291C37.4899 17.9242 36.9934 17.2341 36.7241 16.359C36.4717 15.467 36.4464 14.4572 36.6484 13.3295L38.0117 5.6802H42.3034L40.9906 13.0771C40.9064 13.582 40.9233 14.0364 41.0411 14.4403C41.1589 14.8274 41.3861 15.1388 41.7227 15.3744C42.0593 15.5932 42.5053 15.7026 43.0607 15.7026C43.7171 15.7026 44.3062 15.4586 44.8279 14.9705C45.3665 14.4656 45.7031 13.8092 45.8377 13.0013L47.1 5.6802H51.3917L49.0691 18.8078H44.7774L45.0551 17.1668H44.8531C44.4156 17.7222 43.8602 18.2019 43.1869 18.6058C42.5137 18.9929 41.7816 19.1865 40.9906 19.1865Z" fill="#0A4BFF"/>
<path d="M51.6092 18.8078L53.3258 9.08832H50.5401L51.1459 5.6802H53.9317L54.4114 2.90321H58.7031L58.2234 5.6802H61.6316L61.0257 9.08832H57.6175L56.5068 15.3997H60.1673L59.5614 18.8078H51.6092Z" fill="#0A4BFF"/>
<path d="M68.0856 19.1865C66.7729 19.1865 65.5947 18.9172 64.5513 18.3786C63.5078 17.8232 62.6915 17.0658 62.1025 16.1065C61.5134 15.1304 61.2189 14.028 61.2189 12.7994C61.2189 11.4698 61.5723 10.2328 62.2792 9.08832C63.0029 7.92704 63.9538 7.00979 65.1319 6.33658C66.3269 5.64654 67.6059 5.30152 68.9692 5.30152C70.282 5.30152 71.4432 5.58764 72.4531 6.15986C73.4629 6.73209 74.2455 7.50628 74.8009 8.48243C75.3563 9.44176 75.634 10.5021 75.634 11.6633C75.634 12.1683 75.5919 12.6143 75.5077 13.0013H65.5358C65.5695 13.5904 65.6873 14.0953 65.8893 14.5161C66.0912 14.92 66.3858 15.2314 66.7729 15.4501C67.16 15.6689 67.6228 15.7783 68.1614 15.7783C68.7504 15.7783 69.2553 15.6437 69.6761 15.3744C70.1137 15.1051 70.4418 14.7769 70.6606 14.3898H75.2805C74.9271 15.2314 74.4306 16.014 73.7911 16.7377C73.1515 17.4614 72.3437 18.0504 71.3675 18.5048C70.4082 18.9592 69.3142 19.1865 68.0856 19.1865ZM71.2665 10.8555C71.2497 10.5021 71.1319 10.157 70.9131 9.82044C70.6943 9.48383 70.4082 9.21455 70.0547 9.01259C69.7013 8.81062 69.3226 8.70964 68.9187 8.70964C68.4643 8.70964 68.0351 8.79379 67.6312 8.9621C67.2441 9.1304 66.9075 9.37444 66.6214 9.69421C66.3353 10.014 66.1081 10.4011 65.9398 10.8555H71.2665Z" fill="#0A4BFF"/>
<path d="M75.7534 18.8078L78.076 5.6802H82.3677L82.09 7.32115H82.292C82.6791 6.76575 83.1924 6.2945 83.8319 5.90741C84.4883 5.50348 85.2204 5.30152 86.0283 5.30152C87.0381 5.30152 87.8544 5.5119 88.4771 5.93265C89.1166 6.33658 89.5458 6.84149 89.7646 7.44737H89.9918C90.4967 6.84149 91.1363 6.33658 91.9104 5.93265C92.6846 5.5119 93.5261 5.30152 94.435 5.30152C95.5626 5.30152 96.4798 5.55398 97.1867 6.05888C97.9104 6.54696 98.4069 7.237 98.6762 8.129C98.9455 9.00417 98.9791 10.0224 98.7772 11.1837L97.4644 18.8078H93.1727L94.4855 11.4109C94.6369 10.5862 94.5612 9.94666 94.2583 9.49225C93.9553 9.021 93.4252 8.78538 92.6678 8.78538C92.247 8.78538 91.8515 8.89477 91.4813 9.11357C91.1278 9.31553 90.8249 9.61006 90.5724 9.99715C90.32 10.3842 90.1517 10.8471 90.0675 11.3856L88.7548 18.8078H84.4631L85.7758 11.4109C85.9273 10.5862 85.8516 9.94666 85.5486 9.49225C85.2457 9.021 84.7155 8.78538 83.9582 8.78538C83.5374 8.78538 83.1419 8.89477 82.7716 9.11357C82.4182 9.31553 82.1153 9.61006 81.8628 9.99715C81.6103 10.3842 81.442 10.8471 81.3579 11.3856L80.0451 18.8078H75.7534Z" fill="#0A4BFF"/>
<path d="M99.0765 18.8078L101.399 5.6802H105.691L103.368 18.8078H99.0765ZM104.05 4.29171C103.36 4.29171 102.821 4.12341 102.434 3.7868C102.047 3.43337 101.853 2.97053 101.853 2.39831C101.853 1.69144 102.072 1.11921 102.51 0.681624C102.964 0.227208 103.537 0 104.227 0C104.917 0 105.455 0.176718 105.842 0.530153C106.229 0.866757 106.423 1.32117 106.423 1.8934C106.423 2.60027 106.196 3.18091 105.741 3.63533C105.304 4.07291 104.74 4.29171 104.05 4.29171Z" fill="#0A4BFF"/>
<path d="M105.142 18.8078L107.465 5.6802H111.756L111.479 7.32115H111.681C112.118 6.76575 112.674 6.2945 113.347 5.90741C114.02 5.50348 114.752 5.30152 115.543 5.30152C116.671 5.30152 117.596 5.55398 118.32 6.05888C119.044 6.56379 119.532 7.26224 119.784 8.15424C120.054 9.02942 120.087 10.0308 119.885 11.1584L118.522 18.8078H114.23L115.543 11.4109C115.627 10.906 115.61 10.46 115.493 10.0729C115.375 9.66897 115.148 9.3576 114.811 9.13881C114.474 8.90319 114.028 8.78538 113.473 8.78538C112.817 8.78538 112.219 9.03783 111.681 9.54274C111.159 10.0308 110.831 10.6788 110.696 11.4866L109.434 18.8078H105.142Z" fill="#0A4BFF"/>
<path d="M125.761 19.1865C124.785 19.1865 123.909 18.9424 123.135 18.4543C122.378 17.9663 121.78 17.2846 121.343 16.4095C120.905 15.5343 120.686 14.5245 120.686 13.38C120.686 11.7643 120.998 10.3422 121.62 9.11357C122.26 7.88496 123.085 6.94247 124.094 6.28609C125.121 5.62971 126.181 5.30152 127.275 5.30152C128.285 5.30152 129.127 5.53714 129.8 6.00839C130.49 6.46281 130.986 7.02662 131.289 7.69983H131.542L132.703 1.13604H136.995L133.864 18.8078H129.573L129.85 17.1668H129.648C129.194 17.7222 128.622 18.2019 127.932 18.6058C127.259 18.9929 126.535 19.1865 125.761 19.1865ZM127.654 15.5259C128.209 15.5259 128.723 15.3744 129.194 15.0715C129.665 14.7685 130.044 14.3225 130.33 13.7335C130.616 13.1276 130.759 12.4123 130.759 11.5876C130.759 11.0322 130.65 10.561 130.431 10.1739C130.229 9.76995 129.935 9.467 129.547 9.26504C129.177 9.06308 128.731 8.9621 128.209 8.9621C127.654 8.9621 127.141 9.11357 126.67 9.41651C126.198 9.71946 125.82 10.1739 125.533 10.7798C125.247 11.3688 125.104 12.0757 125.104 12.9004C125.104 13.4558 125.205 13.9354 125.407 14.3394C125.626 14.7264 125.921 15.021 126.291 15.2229C126.678 15.4249 127.132 15.5259 127.654 15.5259Z" fill="#0A4BFF"/>
</svg>
