<svg width="64" height="64" viewBox="0 0 64 64" fill="none" xmlns="http://www.w3.org/2000/svg">
<path d="M23.1331 28.9194C23.1331 24.971 15.6374 24.4739 15.5975 28.9333C15.5799 30.9069 17.0806 31.6773 18.7558 32.286C18.83 32.3129 18.9046 32.3379 18.9794 32.3643C21.0395 33.0796 23.2753 33.705 23.2537 36.1129C23.2138 40.5723 15.7182 40.0751 15.7182 36.1268M48.192 28.9193C48.192 24.9709 40.6963 24.4738 40.6564 28.9332C40.6388 30.9068 42.1395 31.6772 43.8147 32.2858C43.8889 32.3128 43.9635 32.3378 44.0383 32.3642C46.0984 33.0795 48.3342 33.7049 48.3126 36.1128C48.2727 40.5722 40.7771 40.075 40.7771 36.1267M31.9549 55.299C44.4973 55.299 54.727 45.0693 54.727 32.5269C54.727 19.9845 44.4973 9.75488 31.9549 9.75488C19.4125 9.75488 9.18286 19.9845 9.18286 32.5269C9.18286 45.0693 19.4125 55.299 31.9549 55.299ZM30.6903 25.7707H32.8636C34.4226 25.7707 35.6983 27.0464 35.6983 28.6054V36.4481C35.6983 38.0073 34.4226 39.2828 32.8636 39.2828H30.6903C29.1312 39.2828 27.8556 38.0073 27.8556 36.4481V28.6054C27.8556 27.0464 29.1312 25.7707 30.6903 25.7707Z" stroke="#DC362E" stroke-width="3" stroke-miterlimit="22.926" stroke-linecap="round" stroke-linejoin="round"/>
</svg>
